<?xml version="1.0" encoding="utf-8"?>
<!-- Generator: Adobe Illustrator 24.2.3, SVG Export Plug-In . SVG Version: 6.00 Build 0)  -->
<svg version="1.1" id="Layer_1" xmlns="http://www.w3.org/2000/svg" xmlns:xlink="http://www.w3.org/1999/xlink" x="0px" y="0px"
	 viewBox="0 0 500 500" style="enable-background:new 0 0 500 500;" xml:space="preserve">
<style type="text/css">
	.st0{fill:#32598C;}
	.st1{fill:#00A1D1;}
	.st2{fill:#5BC9EF;}
	.st3{fill:#B4E2F2;}
</style>
<polygon class="st0" points="39.87,315.79 195.74,315.79 117.8,237.86 "/>
<polygon class="st1" points="39.87,315.79 39.87,159.92 117.8,237.86 "/>
<polygon class="st2" points="195.74,159.92 39.87,159.92 117.8,237.86 "/>
<polygon class="st2" points="78.84,198.89 78.84,276.83 117.8,237.86 "/>
<polygon class="st1" points="78.84,276.83 156.77,276.83 117.8,237.86 "/>
<polygon class="st3" points="156.77,198.89 78.84,198.89 117.8,237.86 "/>
<g>
	<path d="M225.35,176.58c-2.76,0-5.27,0.48-7.51,1.43c-2.24,0.95-4.14,2.35-5.7,4.2c-1.55,1.85-2.75,4.08-3.58,6.69
		c-0.84,2.61-1.25,5.55-1.25,8.82c0,4.35,0.68,8.11,2.03,11.26c1.35,3.16,3.4,5.56,6.13,7.22c2.73,1.66,6.14,2.49,10.23,2.49
		c2.7,0,5.28-0.27,7.73-0.82c2.45-0.54,4.88-1.2,7.3-1.96v8.98c-2.42,0.93-4.94,1.61-7.55,2.04c-2.62,0.43-5.6,0.65-8.93,0.65
		c-6.39,0-11.7-1.24-15.93-3.71c-4.23-2.48-7.38-5.96-9.45-10.45c-2.07-4.49-3.11-9.75-3.11-15.79c0-4.41,0.65-8.43,1.94-12.08
		c1.29-3.65,3.21-6.82,5.74-9.51c2.53-2.69,5.64-4.76,9.32-6.2c3.68-1.44,7.91-2.16,12.69-2.16c3.11,0,6.2,0.31,9.28,0.94
		c3.08,0.63,5.91,1.54,8.5,2.73l-3.8,8.57c-2.07-0.92-4.26-1.71-6.56-2.37C230.56,176.91,228.06,176.58,225.35,176.58z"/>
	<path d="M276.53,181.35c0.88,0,1.82,0.04,2.85,0.13c1.02,0.08,1.85,0.21,2.5,0.38l-1.14,9.97c-0.7-0.11-1.5-0.22-2.41-0.34
		c-0.91-0.11-1.88-0.17-2.93-0.17c-1.52,0-3.02,0.25-4.51,0.76c-1.49,0.51-2.83,1.3-4.03,2.37c-1.2,1.07-2.15,2.41-2.85,4.01
		c-0.7,1.61-1.05,3.54-1.05,5.79v22.43h-11.12V182.2h8.58l1.58,7.94h0.53c0.93-1.63,2.1-3.13,3.5-4.48c1.4-1.35,2.99-2.41,4.77-3.17
		C272.58,181.73,274.49,181.35,276.53,181.35z"/>
	<path d="M282.18,182.99h11.56l9.25,25.01c0.34,1.08,0.7,2.13,1.07,3.16c0.37,1.03,0.68,2.05,0.94,3.08c0.26,1.03,0.47,2,0.64,2.91
		h0.34c0.23-1.24,0.61-2.68,1.16-4.33c0.54-1.65,1.1-3.25,1.67-4.82l8.9-25.01h11.39l-19.35,48.65c-1.26,3.08-2.7,5.71-4.32,7.89
		c-1.63,2.19-3.61,3.86-5.95,5.02c-2.34,1.16-5.22,1.74-8.65,1.74c-1.43,0-2.67-0.07-3.72-0.2c-1.06-0.14-1.96-0.28-2.7-0.45v-8.09
		c0.63,0.11,1.38,0.22,2.27,0.32c0.88,0.11,1.81,0.16,2.78,0.16c1.77,0,3.27-0.34,4.49-1.01c1.23-0.68,2.27-1.58,3.12-2.71
		c0.86-1.13,1.57-2.43,2.14-3.89l1.54-3.72L282.18,182.99z"/>
	<path d="M368.28,214.05c0,2.83-0.72,5.25-2.16,7.26c-1.44,2.01-3.57,3.56-6.39,4.65c-2.82,1.09-6.33,1.63-10.53,1.63
		c-3.28,0-6.16-0.22-8.63-0.65c-2.48-0.43-4.78-1.11-6.91-2.04v-8.82c2.3,1.03,4.85,1.89,7.64,2.57c2.79,0.68,5.37,1.02,7.73,1.02
		c3.11,0,5.35-0.44,6.73-1.31c1.38-0.87,2.07-2.04,2.07-3.51c0-0.92-0.3-1.76-0.91-2.49c-0.6-0.73-1.7-1.48-3.28-2.24
		c-1.58-0.76-3.81-1.69-6.69-2.78c-2.88-1.09-5.31-2.19-7.29-3.31c-1.99-1.11-3.5-2.48-4.53-4.08c-1.04-1.6-1.55-3.6-1.55-6
		c0-3.97,1.67-7.01,5.01-9.1c3.34-2.09,7.74-3.14,13.21-3.14c2.94,0,5.68,0.27,8.24,0.82c2.56,0.54,5.08,1.36,7.55,2.45l-3.28,7.35
		c-2.13-0.87-4.32-1.59-6.56-2.16c-2.24-0.57-4.35-0.86-6.3-0.86c-2.36,0-4.19,0.35-5.48,1.06c-1.3,0.71-1.94,1.69-1.94,2.94
		c0,0.98,0.32,1.81,0.95,2.49c0.63,0.68,1.75,1.37,3.37,2.08c1.61,0.71,3.85,1.58,6.73,2.61c2.82,1.03,5.22,2.12,7.21,3.27
		c1.99,1.14,3.48,2.52,4.49,4.12C367.77,209.49,368.28,211.55,368.28,214.05z"/>
	<path d="M396.17,219.2c1.36,0,2.66-0.12,3.91-0.37c1.24-0.24,2.41-0.53,3.48-0.86v7.67c-1.15,0.49-2.65,0.91-4.49,1.27
		c-1.84,0.35-3.77,0.53-5.79,0.53c-2.65,0-5.05-0.42-7.21-1.26c-2.16-0.84-3.89-2.3-5.18-4.37c-1.3-2.07-1.94-4.95-1.94-8.65v-23.02
		h-6.35v-4.49l7.03-3.59l3.51-9.39h6.94v9.53h13.5v7.94h-13.5v22.94c0,2.07,0.57,3.61,1.7,4.61
		C392.89,218.7,394.36,219.2,396.17,219.2z"/>
	<path d="M431.63,179.91c5.94,0,10.43,1.31,13.46,3.94c3.03,2.63,4.55,6.62,4.55,11.99v30.84h-7.94l-2.12-6.35h-0.35
		c-1.35,1.64-2.75,2.99-4.19,4.07c-1.44,1.07-3.1,1.86-4.99,2.37c-1.88,0.51-4.15,0.76-6.8,0.76c-2.82,0-5.37-0.51-7.63-1.53
		c-2.27-1.02-4.05-2.57-5.34-4.66c-1.3-2.09-1.94-4.74-1.94-7.96c0-4.69,1.84-8.26,5.52-10.72c3.68-2.46,9.22-3.8,16.64-4.02
		l8.03-0.25v-1.95c0-3.16-0.74-5.37-2.21-6.61c-1.47-1.24-3.5-1.86-6.09-1.86c-2.29,0-4.58,0.35-6.84,1.06
		c-2.27,0.71-4.46,1.51-6.58,2.42l-3.35-7.46c2.35-1.24,5.08-2.23,8.16-2.97C424.7,180.28,428.04,179.91,431.63,179.91z
		 M432.82,206.05c-4.72,0.22-8,0.97-9.84,2.24c-1.84,1.28-2.76,3.09-2.76,5.43c0,2.07,0.66,3.61,1.99,4.61
		c1.32,1.01,3.02,1.51,5.09,1.51c3.16,0,5.83-0.87,7.99-2.61c2.16-1.74,3.24-4.27,3.24-7.59v-3.75L432.82,206.05z"/>
	<path d="M473.46,226.68h-11.12v-61.96h11.12V226.68z"/>
	<path d="M226.44,263.02c-2.85,0-5.44,0.49-7.76,1.48c-2.32,0.98-4.28,2.43-5.88,4.34c-1.6,1.91-2.84,4.21-3.7,6.91
		c-0.86,2.7-1.29,5.73-1.29,9.1c0,4.5,0.7,8.37,2.1,11.63c1.4,3.26,3.51,5.75,6.33,7.46c2.82,1.72,6.34,2.57,10.57,2.57
		c2.79,0,5.45-0.28,7.98-0.84c2.53-0.56,5.04-1.24,7.53-2.02v9.27c-2.5,0.96-5.1,1.66-7.8,2.11c-2.71,0.45-5.78,0.67-9.23,0.67
		c-6.6,0-12.08-1.28-16.45-3.84c-4.37-2.56-7.62-6.15-9.76-10.79c-2.14-4.64-3.21-10.07-3.21-16.31c0-4.55,0.67-8.71,2.01-12.48
		c1.34-3.76,3.31-7.04,5.93-9.82c2.61-2.78,5.82-4.92,9.63-6.41c3.8-1.49,8.17-2.23,13.11-2.23c3.21,0,6.4,0.32,9.58,0.97
		c3.18,0.65,6.11,1.59,8.78,2.82l-3.92,8.85c-2.14-0.95-4.4-1.77-6.78-2.44C231.82,263.35,229.23,263.02,226.44,263.02z"/>
	<path d="M255.81,314.85v-60.37h11.92v50.84h26.21v9.53H255.81z"/>
	<path d="M340.81,314.85h-35.75v-60.37h35.75v8.74h-24.62v15.89h23.04v8.74h-23.04v18.27h24.62V314.85z"/>
	<path d="M397.33,314.85l-5.99-15.89h-23.6l-5.9,15.89h-12.14l23.33-60.37h13.09l23.33,60.37H397.33z M383.03,274.43
		c-0.24-0.67-0.59-1.76-1.07-3.25c-0.48-1.49-0.94-3.03-1.38-4.64c-0.45-1.6-0.79-2.88-1.03-3.84c-0.3,1.24-0.64,2.6-1.03,4.09
		c-0.39,1.49-0.77,2.9-1.16,4.22c-0.39,1.32-0.73,2.46-1.03,3.41l-5.53,15.01h17.65L383.03,274.43z"/>
	<path d="M473.46,314.85h-13.79l-30.35-46.87h-0.36c0.12,1.67,0.22,3.43,0.31,5.27c0.09,1.84,0.18,3.72,0.27,5.65
		c0.09,1.93,0.16,3.86,0.22,5.82v30.13h-10.33v-60.37h14.06l29.99,46.87h0.27c-0.06-1.46-0.12-3.12-0.18-4.97
		c-0.06-1.85-0.13-3.75-0.22-5.69c-0.09-1.94-0.16-3.81-0.22-5.61v-30.6h10.33V314.85z"/>
</g>
</svg>
